<svg width="15" height="15" viewBox="0 0 15 15" fill="none" xmlns="http://www.w3.org/2000/svg">
<g clip-path="url(#clip0_103_1272)">
<rect width="3" height="15" fill="white"/>
<rect x="12" width="3" height="15" fill="white"/>
<rect y="11" width="15" height="4" fill="white"/>
<rect width="15" height="4" fill="white"/>
<line y1="-0.5" x2="5" y2="-0.5" transform="matrix(1 -2.95489e-06 2.58647e-09 1 5 3)" stroke="black"/>
<line x1="4" y1="3.5" x2="11" y2="3.5" stroke="black"/>
<line x1="4" y1="0.5" x2="11" y2="0.500001" stroke="black"/>
<line x1="3.5" y1="4" x2="3.5" y2="5" stroke="black"/>
<line x1="11.5" y1="4" x2="11.5" y2="5" stroke="black"/>
<line x1="13.5" y1="3" x2="13.5" y2="4" stroke="black"/>
<line x1="12.5" y1="2" x2="12.5" y2="3" stroke="black"/>
<line x1="11.5" y1="1" x2="11.5" y2="2" stroke="black"/>
<line x1="11.5" y1="10" x2="11.5" y2="11" stroke="black"/>
<line x1="10.5" y1="11" x2="10.5" y2="12" stroke="black"/>
<line x1="4.5" y1="11" x2="4.5" y2="12" stroke="black"/>
<line x1="3.5" y1="10" x2="3.5" y2="11" stroke="black"/>
<line x1="10" y1="11.5" x2="5" y2="11.5" stroke="black"/>
<line x1="12.5" y1="5" x2="12.5" y2="10" stroke="black"/>
<line x1="4.5" y1="4" x2="4.5" y2="5" stroke="black"/>
<line x1="3.5" y1="5" x2="3.5" y2="6" stroke="black"/>
<line x1="2.5" y1="5" x2="2.5" y2="10" stroke="black"/>
<line x1="3.5" y1="1" x2="3.5" y2="2" stroke="black"/>
<line x1="1.5" y1="11" x2="1.5" y2="12" stroke="black"/>
<line x1="2.5" y1="12" x2="2.5" y2="13" stroke="black"/>
<line x1="2.5" y1="13" x2="2.5" y2="14" stroke="black"/>
<line x1="11.5" y1="13" x2="11.5" y2="14" stroke="black"/>
<line x1="12.5" y1="12" x2="12.5" y2="13" stroke="black"/>
<line x1="13.5" y1="11" x2="13.5" y2="12" stroke="black"/>
<line x1="14.5" y1="4" x2="14.5" y2="11" stroke="black"/>
<line x1="1.5" y1="12" x2="1.5" y2="13" stroke="black"/>
<line x1="0.5" y1="11" x2="0.5" y2="12" stroke="black"/>
<line x1="3.5" y1="13" x2="3.5" y2="14" stroke="black"/>
<line x1="3" y1="14.5" x2="11" y2="14.5" stroke="black"/>
<line x1="4" y1="13.5" x2="11" y2="13.5" stroke="black"/>
<line x1="2.5" y1="2" x2="2.5" y2="3" stroke="black"/>
<line x1="1.5" y1="3" x2="1.5" y2="4" stroke="black"/>
<line x1="0.5" y1="4" x2="0.5" y2="11" stroke="black"/>
</g>
<defs>
<clipPath id="clip0_103_1272">
<rect width="15" height="15" fill="white"/>
</clipPath>
</defs>
</svg>
